<svg width="61" height="61" viewBox="0 0 61 61" fill="none" xmlns="http://www.w3.org/2000/svg">
<path fill-rule="evenodd" clip-rule="evenodd" d="M58.6814 32.0166C59.9444 39.1808 63.1191 48.2554 57.8688 53.2911C52.4082 58.5287 43.1799 52.6631 35.7367 54.0238C29.8471 55.1004 25.0976 62.1254 19.3872 60.3258C13.6813 58.5276 12.8732 50.8158 9.62199 45.794C6.60963 41.1412 1.77343 37.5131 1.05913 32.0166C0.298389 26.1626 2.66122 20.4466 5.66782 15.3663C8.93353 9.84826 12.7856 4.1327 18.8293 1.99029C24.9365 -0.174639 31.7083 1.51136 37.6837 4.01708C43.292 6.36883 47.5711 10.7075 51.2197 15.5727C54.9216 20.5091 57.6103 25.9401 58.6814 32.0166Z" fill="#EE7474" fill-opacity="0.1"/>
<rect x="8" y="29.4998" width="33.234" height="33.234" transform="rotate(-45 8 29.4998)" fill="#E76070"/>
<path d="M40.4036 29.4997C40.4036 34.5472 36.4047 38.6391 31.4719 38.6391C26.5391 38.6391 22.5403 34.5472 22.5403 29.4997C22.5403 24.4522 26.5391 20.3604 31.4719 20.3604C36.4047 20.3604 40.4036 24.4522 40.4036 29.4997Z" fill="#FCFBFB"/>
<rect x="53.3235" y="45.2004" width="6.34468" height="57.324" transform="rotate(133 53.3235 45.2004)" fill="#FCFBFB"/>
</svg>
