<svg width="71" height="70" viewBox="0 0 71 70" fill="none" xmlns="http://www.w3.org/2000/svg">
<rect width="38.9356" height="38.9356" transform="matrix(0.70561 -0.7086 0.70561 0.7086 9.09521 33.4651)" fill="#72D66A"/>
<path fill-rule="evenodd" clip-rule="evenodd" d="M68.3452 36.4196C69.8217 44.8307 73.5332 55.4845 67.3952 61.3966C61.0112 67.5457 50.2227 60.6594 41.5209 62.2569C34.6355 63.5209 29.0829 71.7684 22.4071 69.6556C15.7364 67.5445 14.7917 58.4906 10.9908 52.5948C7.46909 47.1322 1.81518 42.8728 0.980114 36.4196C0.0907482 29.5469 2.85309 22.8361 6.36804 16.8717C10.1859 10.3933 14.6893 3.68305 21.7548 1.16779C28.8946 -1.37391 36.8114 0.60551 43.7972 3.54731C50.3537 6.30835 55.3563 11.4021 59.6218 17.114C63.9496 22.9095 67.0929 29.2857 68.3452 36.4196Z" fill="#72D66A" fill-opacity="0.1"/>
<path d="M46.9774 33.4654C46.9774 39.3913 42.3024 44.1953 36.5356 44.1953C30.7687 44.1953 26.0938 39.3913 26.0938 33.4654C26.0938 27.5394 30.7687 22.7355 36.5356 22.7355C42.3024 22.7355 46.9774 27.5394 46.9774 33.4654Z" fill="#FCFBFB"/>
<rect width="7.43426" height="73.8943" transform="matrix(-0.680455 0.73279 -0.729914 -0.683539 65.3213 54.9319)" fill="#FCFBFB"/>
</svg>
