<svg width="548" height="379" viewBox="0 0 548 379" fill="none" xmlns="http://www.w3.org/2000/svg">
<circle cx="149.605" cy="76.605" r="4.605" fill="#F78F39"/>
<circle cx="177.235" cy="76.605" r="4.605" fill="#F78F39"/>
<circle cx="204.865" cy="76.605" r="4.605" fill="#F78F39"/>
<circle cx="232.495" cy="76.605" r="4.605" fill="#F78F39"/>
<circle cx="260.125" cy="76.605" r="4.605" fill="#F78F39"/>
<circle cx="287.755" cy="76.605" r="4.605" fill="#F78F39"/>
<circle cx="315.385" cy="76.605" r="4.605" fill="#F78F39"/>
<circle cx="343.015" cy="76.605" r="4.605" fill="#F78F39"/>
<circle cx="370.645" cy="76.605" r="4.605" fill="#F78F39"/>
<circle cx="398.275" cy="76.605" r="4.605" fill="#F78F39"/>
<circle cx="425.905" cy="76.605" r="4.605" fill="#F78F39"/>
<g clip-path="url(#clip0)">
<circle cx="149.605" cy="104.235" r="4.605" fill="#F78F39"/>
<circle cx="177.235" cy="104.235" r="4.605" fill="#F78F39"/>
<circle cx="204.865" cy="104.235" r="4.605" fill="#F78F39"/>
<circle cx="232.495" cy="104.235" r="4.605" fill="#F78F39"/>
<circle cx="260.125" cy="104.235" r="4.605" fill="#F78F39"/>
<circle cx="287.755" cy="104.235" r="4.605" fill="#F78F39"/>
<circle cx="315.385" cy="104.235" r="4.605" fill="#F78F39"/>
<circle cx="343.015" cy="104.235" r="4.605" fill="#F78F39"/>
<circle cx="370.645" cy="104.235" r="4.605" fill="#F78F39"/>
<circle cx="398.275" cy="104.235" r="4.605" fill="#F78F39"/>
<circle cx="425.905" cy="104.235" r="4.605" fill="#F78F39"/>
</g>
<g clip-path="url(#clip1)">
<circle cx="149.605" cy="131.865" r="4.605" fill="#F78F39"/>
<circle cx="177.235" cy="131.865" r="4.605" fill="#F78F39"/>
<circle cx="204.865" cy="131.865" r="4.605" fill="#F78F39"/>
<circle cx="232.495" cy="131.865" r="4.605" fill="#F78F39"/>
<circle cx="260.125" cy="131.865" r="4.605" fill="#F78F39"/>
<circle cx="287.755" cy="131.865" r="4.605" fill="#F78F39"/>
<circle cx="425.905" cy="131.865" r="4.605" fill="#F78F39"/>
</g>
<g clip-path="url(#clip2)">
<circle cx="149.605" cy="159.495" r="4.605" fill="#F78F39"/>
<circle cx="177.235" cy="159.495" r="4.605" fill="#F78F39"/>
<circle cx="204.865" cy="159.495" r="4.605" fill="#F78F39"/>
<circle cx="232.495" cy="159.495" r="4.605" fill="#F78F39"/>
<circle cx="260.125" cy="159.495" r="4.605" fill="#F78F39"/>
<circle cx="287.755" cy="159.495" r="4.605" fill="#F78F39"/>
<circle cx="425.905" cy="159.495" r="4.605" fill="#F78F39"/>
</g>
<g clip-path="url(#clip3)">
<circle cx="149.605" cy="187.125" r="4.605" fill="#F78F39"/>
<circle cx="177.235" cy="187.125" r="4.605" fill="#F78F39"/>
<circle cx="204.865" cy="187.125" r="4.605" fill="#F78F39"/>
<circle cx="232.495" cy="187.125" r="4.605" fill="#F78F39"/>
<circle cx="260.125" cy="187.125" r="4.605" fill="#F78F39"/>
<circle cx="287.755" cy="187.125" r="4.605" fill="#F78F39"/>
<circle cx="425.905" cy="187.125" r="4.605" fill="#F78F39"/>
</g>
<g clip-path="url(#clip4)">
<circle cx="149.605" cy="214.755" r="4.605" fill="#F78F39"/>
<circle cx="177.235" cy="214.755" r="4.605" fill="#F78F39"/>
<circle cx="204.865" cy="214.755" r="4.605" fill="#F78F39"/>
<circle cx="232.495" cy="214.755" r="4.605" fill="#F78F39"/>
<circle cx="260.125" cy="214.755" r="4.605" fill="#F78F39"/>
<circle cx="287.755" cy="214.755" r="4.605" fill="#F78F39"/>
<circle cx="425.905" cy="214.755" r="4.605" fill="#F78F39"/>
</g>
<g clip-path="url(#clip5)">
<circle cx="149.605" cy="242.385" r="4.605" fill="#F78F39"/>
<circle cx="177.235" cy="242.385" r="4.605" fill="#F78F39"/>
<circle cx="204.865" cy="242.385" r="4.605" fill="#F78F39"/>
<circle cx="232.495" cy="242.385" r="4.605" fill="#F78F39"/>
<circle cx="260.125" cy="242.385" r="4.605" fill="#F78F39"/>
<circle cx="287.755" cy="242.385" r="4.605" fill="#F78F39"/>
<circle cx="425.905" cy="242.385" r="4.605" fill="#F78F39"/>
</g>
<g clip-path="url(#clip6)">
<circle cx="149.605" cy="270.015" r="4.605" fill="#F78F39"/>
<circle cx="177.235" cy="270.015" r="4.605" fill="#F78F39"/>
<circle cx="204.865" cy="270.015" r="4.605" fill="#F78F39"/>
<circle cx="232.495" cy="270.015" r="4.605" fill="#F78F39"/>
<circle cx="260.125" cy="270.015" r="4.605" fill="#F78F39"/>
<circle cx="287.755" cy="270.015" r="4.605" fill="#F78F39"/>
<circle cx="425.905" cy="270.015" r="4.605" fill="#F78F39"/>
</g>
<g clip-path="url(#clip7)">
<circle cx="149.605" cy="297.645" r="4.605" fill="#F78F39"/>
<circle cx="177.235" cy="297.645" r="4.605" fill="#F78F39"/>
<circle cx="204.865" cy="297.645" r="4.605" fill="#F78F39"/>
<circle cx="232.495" cy="297.645" r="4.605" fill="#F78F39"/>
<circle cx="260.125" cy="297.645" r="4.605" fill="#F78F39"/>
<circle cx="287.755" cy="297.645" r="4.605" fill="#F78F39"/>
<circle cx="425.905" cy="297.645" r="4.605" fill="#F78F39"/>
</g>
<g clip-path="url(#clip8)">
<circle cx="149.605" cy="325.275" r="4.605" fill="#F78F39"/>
<circle cx="177.235" cy="325.275" r="4.605" fill="#F78F39"/>
<circle cx="204.865" cy="325.275" r="4.605" fill="#F78F39"/>
<circle cx="232.495" cy="325.275" r="4.605" fill="#F78F39"/>
<circle cx="260.125" cy="325.275" r="4.605" fill="#F78F39"/>
<circle cx="287.755" cy="325.275" r="4.605" fill="#F78F39"/>
<circle cx="315.385" cy="325.275" r="4.605" fill="#F78F39"/>
<circle cx="343.015" cy="325.275" r="4.605" fill="#F78F39"/>
<circle cx="370.645" cy="325.275" r="4.605" fill="#F78F39"/>
<circle cx="398.275" cy="325.275" r="4.605" fill="#F78F39"/>
<circle cx="425.905" cy="325.275" r="4.605" fill="#F78F39"/>
</g>
<g clip-path="url(#clip9)">
<circle cx="149.605" cy="352.905" r="4.605" fill="#F78F39"/>
<circle cx="177.235" cy="352.905" r="4.605" fill="#F78F39"/>
<circle cx="204.865" cy="352.905" r="4.605" fill="#F78F39"/>
<circle cx="232.495" cy="352.905" r="4.605" fill="#F78F39"/>
<circle cx="260.125" cy="352.905" r="4.605" fill="#F78F39"/>
<circle cx="287.755" cy="352.905" r="4.605" fill="#F78F39"/>
<circle cx="315.385" cy="352.905" r="4.605" fill="#F78F39"/>
<circle cx="343.015" cy="352.905" r="4.605" fill="#F78F39"/>
<circle cx="370.645" cy="352.905" r="4.605" fill="#F78F39"/>
<circle cx="398.275" cy="352.905" r="4.605" fill="#F78F39"/>
<circle cx="425.905" cy="352.905" r="4.605" fill="#F78F39"/>
</g>
<path d="M55.7853 319.994L55.7853 294.337L61.6819 294.337L61.6819 207.008L58.4125 207.008L58.4125 204.17L110.914 204.17L110.914 207.008L107.644 207.008L107.644 227.448L120.503 227.448L120.503 219.967L117.453 219.967L117.453 217.13L162.204 217.13L162.204 219.967L159.153 219.967L159.153 227.448L184.345 227.448L184.345 219.967L181.295 219.967L181.295 217.13L226.046 217.13L226.046 219.967L222.995 219.967L222.995 227.448L234.584 227.448L234.584 181.008L230.221 181.008L230.221 178.172L263.849 178.172L263.849 166.459L260.316 166.459L260.316 163.623L287.085 163.623L287.085 118.499L283.466 118.499L283.466 115.663L289.874 115.663L289.874 107.107L287.071 107.107L287.071 104.27L327.093 104.27L327.093 73.2613L324.42 73.2613L324.42 70.4245L335.223 70.4245L335.223 49.7102L340.609 49.7102L340.609 43.5679L342.417 43.5679L347.133 1.27328e-07C347.133 1.27328e-07 351.043 37.8946 351.993 43.5679L353.671 43.5679L353.671 49.7102L357.685 49.7102L357.685 70.4245L368.485 70.4245L368.485 73.2613L365.815 73.2613L365.815 104.27L405.457 104.27L405.457 107.107L402.654 107.107L402.654 115.663L409.062 115.663L409.062 118.499L405.444 118.499L405.444 163.623L431.759 163.623L431.759 166.459L428.226 166.459L428.226 178.172L462.323 178.172L462.323 181.008L457.957 181.008L457.957 224.611L503.935 224.611L503.935 227.448L497.382 227.448L497.382 294.337L503.935 294.337L503.935 319.994L548 319.994L548 321L-1.17742e-07 321L-1.17373e-07 319.994L55.7853 319.994ZM482.873 319.994L496.607 319.994L496.607 305.535C496.607 305.535 494.974 304.014 489.748 304.014C484.522 304.014 482.889 305.535 482.889 305.535L482.889 319.994L482.873 319.994ZM460.673 319.994L474.409 319.994L474.409 305.535C474.409 305.535 472.773 304.014 467.547 304.014C462.323 304.014 460.688 305.535 460.688 305.535L460.688 319.994L460.673 319.994ZM438.472 319.994L452.208 319.994L452.208 305.535C452.208 305.535 450.573 304.014 445.347 304.014C440.123 304.014 438.488 305.535 438.488 305.535L438.488 319.994L438.472 319.994ZM416.287 319.994L430.023 319.994L430.023 305.535C430.023 305.535 428.388 304.014 423.162 304.014C417.938 304.014 416.303 305.535 416.303 305.535L416.303 319.994L416.287 319.994ZM397.81 294.337L400.202 294.337L400.202 184.566L397.81 184.566L397.81 294.337ZM397.81 178.172L400.202 178.172L400.202 119.551L397.81 119.551L397.81 178.172ZM391.445 294.337L393.839 294.337L393.839 184.566L391.445 184.566L391.445 294.337ZM391.445 178.172L393.839 178.172L393.839 119.551L391.445 119.551L391.445 178.172ZM385.082 294.337L387.474 294.337L387.474 184.566L385.082 184.566L385.082 294.337ZM385.082 178.172L387.474 178.172L387.474 119.551L385.082 119.551L385.082 178.172ZM378.704 294.337L381.096 294.337L381.096 184.566L378.704 184.566L378.704 294.337ZM378.704 178.172L381.096 178.172L381.096 119.551L378.704 119.551L378.704 178.172ZM372.339 294.337L374.733 294.337L374.733 184.566L372.339 184.566L372.339 294.337ZM372.339 178.172L374.733 178.172L374.733 119.551L372.339 119.551L372.339 178.172ZM365.976 294.337L368.368 294.337L368.368 184.566L365.976 184.566L365.976 294.337ZM365.976 178.172L368.368 178.172L368.368 119.551L365.976 119.551L365.976 178.172ZM348.387 56.5959L344.548 56.5959L344.548 70.4017L348.387 70.4017L348.387 56.5959ZM356.546 294.337L359.89 294.337L359.89 279.639L356.546 279.639L356.546 294.337ZM356.546 277.763L359.89 277.763L359.89 255.425L356.546 255.425L356.546 277.763ZM356.546 253.561L359.89 253.561L359.89 231.222L356.546 231.222L356.546 253.561ZM356.546 229.346L359.89 229.346L359.89 207.008L356.546 207.008L356.546 229.346ZM356.546 205.131L359.89 205.131L359.89 182.793L356.546 182.793L356.546 205.131ZM356.546 180.928L359.89 180.928L359.89 158.59L356.546 158.59L356.546 180.928ZM356.546 156.714L359.89 156.714L359.89 134.375L356.546 134.375L356.546 156.714ZM356.546 132.499L359.89 132.499L359.89 115.651L356.546 115.651L356.546 132.499ZM354.547 56.5959L350.709 56.5959L350.709 70.4017L354.547 70.4017L354.547 56.5959ZM338.783 294.337L354.154 294.337L354.154 279.639L338.783 279.639L338.783 294.337ZM338.783 277.763L354.154 277.763L354.154 255.425L338.783 255.425L338.783 277.763ZM338.783 253.561L354.154 253.561L354.154 231.222L338.783 231.222L338.783 253.561ZM338.783 229.346L354.154 229.346L354.154 207.008L338.783 207.008L338.783 229.346ZM338.783 205.131L354.154 205.131L354.154 182.793L338.783 182.793L338.783 205.131ZM338.783 180.928L354.154 180.928L354.154 158.59L338.783 158.59L338.783 180.928ZM338.783 156.714L354.154 156.714L354.154 134.375L338.783 134.375L338.783 156.714ZM338.783 132.499L354.154 132.499L354.154 115.651L338.783 115.651L338.783 132.499ZM338.361 70.4131L342.199 70.4131L342.199 56.6073L338.361 56.6073L338.361 70.4131ZM332.667 294.337L336.405 294.337L336.405 279.639L332.667 279.639L332.667 294.337ZM332.667 277.763L336.405 277.763L336.405 255.425L332.667 255.425L332.667 277.763ZM332.667 253.561L336.405 253.561L336.405 231.222L332.667 231.222L332.667 253.561ZM332.667 229.346L336.405 229.346L336.405 207.008L332.667 207.008L332.667 229.346ZM332.667 205.131L336.405 205.131L336.405 182.793L332.667 182.793L332.667 205.131ZM332.667 180.928L336.405 180.928L336.405 158.59L332.667 158.59L332.667 180.928ZM332.667 156.714L336.405 156.714L336.405 134.375L332.667 134.375L332.667 156.714ZM332.667 132.499L336.405 132.499L336.405 115.651L332.667 115.651L332.667 132.499ZM324.596 294.337L326.99 294.337L326.99 184.566L324.596 184.566L324.596 294.337ZM324.596 178.172L326.99 178.172L326.99 119.551L324.596 119.551L324.596 178.172ZM318.233 294.337L320.627 294.337L320.627 184.566L318.233 184.566L318.233 294.337ZM318.233 178.172L320.627 178.172L320.627 119.551L318.233 119.551L318.233 178.172ZM311.868 294.337L314.262 294.337L314.262 184.566L311.868 184.566L311.868 294.337ZM311.868 178.172L314.262 178.172L314.262 119.551L311.868 119.551L311.868 178.172ZM305.49 294.337L307.884 294.337L307.884 184.566L305.49 184.566L305.49 294.337ZM305.49 178.172L307.884 178.172L307.884 119.551L305.49 119.551L305.49 178.172ZM299.127 294.337L301.521 294.337L301.521 184.566L299.127 184.566L299.127 294.337ZM299.127 178.172L301.521 178.172L301.521 119.551L299.127 119.551L299.127 178.172ZM292.762 294.337L295.156 294.337L295.156 184.566L292.762 184.566L292.762 294.337ZM292.762 178.172L295.156 178.172L295.156 119.551L292.762 119.551L292.762 178.172ZM266.126 319.994L279.86 319.994L279.86 305.535C279.86 305.535 278.225 304.014 273.001 304.014C267.774 304.014 266.139 305.535 266.139 305.535L266.139 319.994L266.126 319.994ZM243.941 319.994L257.675 319.994L257.675 305.535C257.675 305.535 256.04 304.014 250.816 304.014C245.589 304.014 243.954 305.535 243.954 305.535L243.954 319.994L243.941 319.994ZM221.74 319.994L235.474 319.994L235.474 305.535C235.474 305.535 233.839 304.014 228.615 304.014C223.389 304.014 221.754 305.535 221.754 305.535L221.754 319.994L221.74 319.994ZM199.54 319.994L213.274 319.994L213.274 305.535C213.274 305.535 211.639 304.014 206.414 304.014C201.189 304.014 199.554 305.535 199.554 305.535L199.554 319.994L199.54 319.994ZM177.354 319.994L191.088 319.994L191.088 305.535C191.088 305.535 189.454 304.014 184.228 304.014C179.003 304.014 177.368 305.535 177.368 305.535L177.368 319.994L177.354 319.994ZM155.154 319.994L168.888 319.994L168.888 305.535C168.888 305.535 167.254 304.014 162.028 304.014C156.803 304.014 155.168 305.535 155.168 305.535L155.168 319.994L155.154 319.994ZM132.968 319.994L146.703 319.994L146.703 305.535C146.703 305.535 145.068 304.014 139.843 304.014C134.617 304.014 132.983 305.535 132.983 305.535L132.983 319.994L132.968 319.994ZM110.768 319.994L124.502 319.994L124.502 305.535C124.502 305.535 122.868 304.014 117.642 304.014C112.417 304.014 110.782 305.535 110.782 305.535L110.782 319.994L110.768 319.994ZM88.5822 319.994L102.317 319.994L102.317 305.535C102.317 305.535 100.682 304.014 95.4567 304.014C90.2313 304.014 88.5968 305.535 88.5968 305.535L88.5968 319.994L88.5822 319.994ZM66.3819 319.994L80.1165 319.994L80.1165 305.535C80.1165 305.535 78.4817 304.014 73.2566 304.014C68.0313 304.014 66.3965 305.535 66.3965 305.535L66.3965 319.994L66.3819 319.994Z" fill="#292420"/>
<defs>
<clipPath id="clip0">
<rect x="145" y="99.63" width="307" height="27.63" fill="white"/>
</clipPath>
<clipPath id="clip1">
<rect x="145" y="127.26" width="307" height="27.63" fill="white"/>
</clipPath>
<clipPath id="clip2">
<rect x="145" y="154.89" width="307" height="27.63" fill="white"/>
</clipPath>
<clipPath id="clip3">
<rect x="145" y="182.52" width="307" height="27.63" fill="white"/>
</clipPath>
<clipPath id="clip4">
<rect x="145" y="210.15" width="307" height="27.63" fill="white"/>
</clipPath>
<clipPath id="clip5">
<rect x="145" y="237.78" width="307" height="27.63" fill="white"/>
</clipPath>
<clipPath id="clip6">
<rect x="145" y="265.41" width="307" height="27.63" fill="white"/>
</clipPath>
<clipPath id="clip7">
<rect x="145" y="293.04" width="307" height="27.63" fill="white"/>
</clipPath>
<clipPath id="clip8">
<rect x="145" y="320.67" width="307" height="27.63" fill="white"/>
</clipPath>
<clipPath id="clip9">
<rect x="145" y="348.3" width="307" height="27.63" fill="white"/>
</clipPath>
</defs>
</svg>
