<svg width="89" height="82" viewBox="0 0 89 82" fill="none" xmlns="http://www.w3.org/2000/svg">
<path fill-rule="evenodd" clip-rule="evenodd" d="M44.9277 6.65772C34.6061 7.03341 23.9262 -0.959443 14.8264 3.9118C5.60012 8.85072 0.858703 20.2719 0.0490379 30.6817C-0.686126 40.1337 7.02961 47.5688 10.7523 56.2924C14.0305 63.9745 13.8049 73.7287 20.5371 78.6927C27.2822 83.6662 36.539 81.5795 44.9277 81.4915C53.2127 81.4045 61.6598 82.1141 68.9479 78.1846C76.9042 73.8949 83.6628 67.2362 86.9501 58.8345C90.3518 50.1406 88.8565 40.7102 87.2047 31.5246C85.2901 20.8772 86.0135 7.15705 76.6692 1.66085C67.2119 -3.90181 55.9006 6.25833 44.9277 6.65772Z" fill="#E2A8EC"/>
<path d="M60.0806 1.136e-08L56.3894 9.96447e-09L56.3894 28.1161L60.0806 28.1161L60.0806 1.136e-08Z" fill="#333333"/>
<path d="M60.0806 31.7048L56.3894 31.7048L56.3894 74.4352L60.0806 74.4352L60.0806 31.7048Z" fill="#333333"/>
<path d="M53.7492 8.96632e-09L36.7827 2.55204e-09L36.7827 28.1161L53.7492 28.1161L53.7492 8.96632e-09Z" fill="#333333"/>
<path d="M53.7492 31.7048L36.7827 31.7048L36.7827 74.4352L53.7492 74.4352L53.7492 31.7048Z" fill="#333333"/>
<path d="M34.1573 1.55953e-09L30.0322 0L30.0322 28.1161L34.1573 28.1161L34.1573 1.55953e-09Z" fill="#333333"/>
<path d="M34.1573 31.7048L30.0322 31.7048L30.0322 74.4352L34.1573 74.4352L34.1573 31.7048Z" fill="#333333"/>
<path d="M69.983 68.4774L79 75.7059H10.392L32.3972 71.7026L35.742 69.2097H28.4261H20.1932V47.7222H28.4261V64.7123V69.2097H35.742L53.9597 55.6324L64.1023 63.7632V25.2354H69.983V68.4774Z" fill="#333333"/>
<rect x="23.3547" y="67.6763" width="2.22581" height="6.88235" fill="#333333"/>
<rect x="32.2581" y="27.5293" width="25.5968" height="4.58823" fill="#333333"/>
<rect x="32.2581" y="18.353" width="25.5968" height="4.58823" fill="#333333"/>
<rect x="33.3708" y="44.7354" width="25.5968" height="4.58823" fill="#333333"/>
<rect x="32.2581" y="33.2646" width="25.5968" height="4.58823" fill="#333333"/>
</svg>
