<svg width="79" height="83" viewBox="0 0 79 83" fill="none" xmlns="http://www.w3.org/2000/svg">
<path fill-rule="evenodd" clip-rule="evenodd" d="M35.3156 0.00738689C45.7829 0.337706 50.3228 12.7851 57.7219 20.1433C65.1096 27.4902 76.8278 32.066 77.9333 42.3894C79.0864 53.1581 71.0302 62.5427 63.0533 69.9286C55.3936 77.0209 45.721 83.035 35.3156 81.8501C25.5835 80.7419 19.7862 71.5374 13.2858 64.2616C7.3773 57.6483 0.418397 51.2223 0.0603375 42.3894C-0.30824 33.2969 5.6017 25.699 11.4382 18.6827C18.1455 10.6195 24.7879 -0.32484 35.3156 0.00738689Z" fill="#C989FB" fill-opacity="0.2"/>
<path d="M54.6024 43.8268H18.5V35.7341H54.6024V43.8268Z" fill="#333333" fill-opacity="0.2"/>
<path d="M18.5 34V35.5765C11.993 35.5765 10.5046 41.004 10.4448 41.2293L8.92649 40.839C8.94146 40.7713 10.7514 34 18.5 34Z" fill="#333333" fill-opacity="0.2"/>
<path d="M64.1683 40.839L62.65 41.2293C62.5901 41.004 61.1018 35.5765 54.5949 35.5765V34C62.3434 34 64.1533 40.7713 64.1683 40.839Z" fill="#333333" fill-opacity="0.2"/>
<path d="M23.9822 82.4356H10.7365V47.6929H8.04395V44.8402H65.0583V47.6929H62.3658V82.4356H48.7685V47.7079H47.7289V82.4356H25.0219V47.7079H23.9822V82.4356Z" fill="#333333" fill-opacity="0.2"/>
</svg>
