<svg width="92" height="95" viewBox="0 0 92 95" fill="none" xmlns="http://www.w3.org/2000/svg">
<path fill-rule="evenodd" clip-rule="evenodd" d="M43.928 2.0516C52.4837 1.36802 59.5831 7.62838 67.0986 11.7914C75.8781 16.6546 88.3691 18.7317 91.3807 28.3368C94.3945 37.9489 85.6796 47.0217 80.9276 55.8972C77.0662 63.1092 72.0492 68.9976 66.4326 74.9331C59.349 82.4189 54.2084 94.7948 43.928 94.9976C33.6777 95.1998 28.4298 82.6804 20.772 75.8337C14.0898 69.8593 5.17324 65.9065 1.99595 57.5069C-1.25034 48.9248 -0.433753 38.8831 3.6971 30.6936C7.53911 23.0767 16.3538 20.2295 23.2895 15.2917C30.1163 10.4315 35.5865 2.71808 43.928 2.0516Z" fill="#8FDAF2"/>
<path d="M26.7965 37.4239H25.503V49.1545H26.7965V37.4239ZM33.0327 37.4239H31.7392V49.1545H33.0327V37.4239ZM72.8803 92.6899L72.3529 87.0142H73.3765L70.7972 3.74404L59.2584 4.75103L58.0445 72.5132L57.6201 72.5168L57.7179 72.5132L58.8005 5.88677L53.2768 72.5365L37.245 72.619V37.4239H35.1337V49.1545H33.0327V56.5962H31.7392V49.1545H30.4456V56.5962H28.4938V49.1545H30.4456V37.4239H27.8791V49.1545H26.7939V56.5466H28.4295V63.9888H26.7939V56.5962H25.5004V49.1545H23.2862V56.5466H24.5797V63.9888H23.2862V56.5962H21.0334V63.9888H17.6749V56.5466H21.0386V49.1545H23.2913V37.4239H15.5816V92.6899H14V93H77V92.6899H72.8803ZM37.245 92.6899V87.0142H38.4357L38.9629 92.6899H37.245ZM40.3439 92.6899H40.0764L39.5492 87.0142H41.1719L40.3439 92.6899ZM41.46 92.6899L41.9563 89.2822L42.5889 92.6899H41.46ZM43.705 92.6899L42.6506 87.0142H45.7289L44.3659 92.6899H43.705ZM45.482 92.6899L46.845 87.0142H47.8196L48.6476 92.6899H45.482ZM49.4294 90.3982L48.9359 87.0107H50.0722L49.4294 90.3982ZM50.1085 92.6899L51.1886 87.0142H52.4486L52.9757 92.6899H50.1085ZM54.5239 92.6899H54.0917L53.5647 87.0142H55.5807L54.5239 92.6899ZM55.64 92.6899L56.6994 87.0142H57.826L56.4888 92.6899H55.64ZM57.6021 92.6899L58.9393 87.0142H61.3259L61.8529 92.6899H57.6021ZM62.9693 92.6899L62.4419 87.0142H65.2888L66.3432 92.6899H62.9693ZM68.6295 92.6899H67.4565L66.4025 87.0142H69.6835L68.6295 92.6899ZM69.7455 92.6899L70.7999 87.0142H71.2369L71.7642 92.6899H69.7455ZM70.5733 0L59.2428 2.68752V4.34823L70.7278 3.19266L70.5733 0Z" fill="#333333"/>
</svg>
