<svg width="316" height="72" viewBox="0 0 316 72" fill="none" xmlns="http://www.w3.org/2000/svg">
<path d="M117.232 53.64C114.544 53.64 112.176 53 110.128 51.72C108.08 50.44 106.459 48.776 105.264 46.728V66.632H98.224V19.528H104.432V25.544C105.712 23.5387 107.355 21.9387 109.36 20.744C111.408 19.5493 113.712 18.952 116.272 18.952C118.576 18.952 120.688 19.4213 122.608 20.36C124.528 21.2987 126.192 22.5573 127.6 24.136C129.008 25.7147 130.096 27.5493 130.864 29.64C131.675 31.7307 132.08 33.928 132.08 36.232C132.08 38.664 131.717 40.9467 130.992 43.08C130.267 45.1707 129.243 47.0053 127.92 48.584C126.597 50.12 125.019 51.3573 123.184 52.296C121.392 53.192 119.408 53.64 117.232 53.64ZM114.928 47.624C116.421 47.624 117.765 47.304 118.96 46.664C120.197 46.024 121.243 45.1707 122.096 44.104C122.992 43.0373 123.675 41.8213 124.144 40.456C124.613 39.0907 124.848 37.6827 124.848 36.232C124.848 34.696 124.571 33.2453 124.016 31.88C123.504 30.5147 122.779 29.32 121.84 28.296C120.944 27.272 119.856 26.4613 118.576 25.864C117.296 25.2667 115.909 24.968 114.416 24.968C113.52 24.968 112.581 25.1387 111.6 25.48C110.619 25.8213 109.701 26.2907 108.848 26.888C107.995 27.4853 107.248 28.1893 106.608 29C105.968 29.768 105.52 30.6213 105.264 31.56V40.328C105.691 41.352 106.245 42.312 106.928 43.208C107.611 44.104 108.357 44.872 109.168 45.512C110.021 46.152 110.939 46.664 111.92 47.048C112.901 47.432 113.904 47.624 114.928 47.624ZM138.476 6.28H145.516V43.336C145.516 44.5733 145.836 45.5547 146.476 46.28C147.116 46.9627 148.012 47.304 149.164 47.304C149.633 47.304 150.166 47.2187 150.764 47.048C151.404 46.8773 152.001 46.6853 152.556 46.472L153.58 51.976C152.556 52.4453 151.34 52.808 149.932 53.064C148.524 53.3627 147.265 53.512 146.156 53.512C143.724 53.512 141.825 52.8507 140.46 51.528C139.137 50.2053 138.476 48.328 138.476 45.896V6.28ZM166.558 53.64C164.936 53.64 163.422 53.384 162.014 52.872C160.648 52.3173 159.454 51.5707 158.43 50.632C157.448 49.6933 156.659 48.584 156.062 47.304C155.507 46.024 155.23 44.6373 155.23 43.144C155.23 41.5653 155.571 40.136 156.254 38.856C156.936 37.576 157.896 36.4667 159.134 35.528C160.414 34.5893 161.907 33.864 163.614 33.352C165.363 32.84 167.283 32.584 169.374 32.584C170.952 32.584 172.51 32.7333 174.046 33.032C175.582 33.288 176.968 33.6507 178.206 34.12V31.816C178.206 29.3413 177.502 27.4213 176.094 26.056C174.686 24.648 172.659 23.944 170.014 23.944C168.222 23.944 166.451 24.2853 164.702 24.968C162.995 25.608 161.224 26.5467 159.39 27.784L157.214 23.304C161.523 20.4027 166.003 18.952 170.654 18.952C175.262 18.952 178.846 20.1253 181.406 22.472C183.966 24.8187 185.246 28.1893 185.246 32.584V44.68C185.246 46.1733 185.864 46.9413 187.102 46.984V53C186.419 53.128 185.822 53.2133 185.31 53.256C184.84 53.2987 184.371 53.32 183.902 53.32C182.536 53.32 181.47 52.9787 180.702 52.296C179.976 51.6133 179.528 50.7387 179.358 49.672L179.166 47.56C177.672 49.5227 175.816 51.0373 173.598 52.104C171.422 53.128 169.075 53.64 166.558 53.64ZM168.478 48.456C170.184 48.456 171.784 48.1573 173.278 47.56C174.814 46.92 176.008 46.0453 176.862 44.936C177.758 44.168 178.206 43.3573 178.206 42.504V38.088C177.011 37.6187 175.731 37.256 174.366 37C173.043 36.744 171.742 36.616 170.462 36.616C167.944 36.616 165.875 37.1707 164.254 38.28C162.675 39.3467 161.885 40.776 161.885 42.568C161.885 44.232 162.504 45.64 163.742 46.792C164.979 47.9013 166.558 48.456 168.478 48.456ZM191.611 36.232C191.611 33.8853 192.016 31.6667 192.827 29.576C193.637 27.4853 194.789 25.6507 196.283 24.072C197.819 22.4933 199.653 21.256 201.787 20.36C203.92 19.4213 206.309 18.952 208.955 18.952C212.411 18.952 215.376 19.72 217.851 21.256C220.368 22.7493 222.245 24.7547 223.483 27.272L216.635 29.448C215.824 28.04 214.736 26.952 213.371 26.184C212.005 25.3733 210.491 24.968 208.827 24.968C207.419 24.968 206.096 25.2453 204.859 25.8C203.664 26.3547 202.619 27.144 201.723 28.168C200.827 29.1493 200.123 30.3227 199.611 31.688C199.099 33.0533 198.843 34.568 198.843 36.232C198.843 37.8533 199.099 39.368 199.611 40.776C200.165 42.1413 200.891 43.336 201.787 44.36C202.725 45.384 203.792 46.1947 204.987 46.792C206.224 47.3467 207.525 47.624 208.891 47.624C209.744 47.624 210.597 47.5173 211.451 47.304C212.304 47.048 213.072 46.7067 213.755 46.28C214.48 45.8533 215.099 45.3627 215.611 44.808C216.165 44.2533 216.571 43.656 216.827 43.016L223.739 45.064C222.629 47.5813 220.773 49.6507 218.171 51.272C215.568 52.8507 212.496 53.64 208.955 53.64C206.352 53.64 203.984 53.1707 201.851 52.232C199.717 51.2933 197.883 50.0347 196.347 48.456C194.853 46.8347 193.68 44.9787 192.827 42.888C192.016 40.7973 191.611 38.5787 191.611 36.232ZM244.392 53.64C241.789 53.64 239.421 53.192 237.288 52.296C235.155 51.3573 233.32 50.0987 231.784 48.52C230.291 46.9413 229.117 45.1067 228.264 43.016C227.453 40.9253 227.048 38.7067 227.048 36.36C227.048 34.0133 227.453 31.7947 228.264 29.704C229.117 27.5707 230.291 25.7147 231.784 24.136C233.32 22.5147 235.155 21.256 237.288 20.36C239.421 19.4213 241.811 18.952 244.456 18.952C247.059 18.952 249.405 19.4213 251.496 20.36C253.629 21.2987 255.443 22.5573 256.936 24.136C258.429 25.672 259.56 27.4853 260.328 29.576C261.139 31.624 261.544 33.7787 261.544 36.04C261.544 36.552 261.523 37.0427 261.48 37.512C261.437 37.9387 261.395 38.3013 261.352 38.6H234.536C234.664 40.0933 235.005 41.4373 235.56 42.632C236.157 43.8267 236.904 44.872 237.8 45.768C238.739 46.6213 239.784 47.2827 240.936 47.752C242.131 48.2213 243.368 48.456 244.648 48.456C245.587 48.456 246.504 48.3493 247.4 48.136C248.339 47.88 249.192 47.5387 249.96 47.112C250.728 46.6427 251.411 46.088 252.008 45.448C252.605 44.808 253.075 44.104 253.416 43.336L259.432 45.064C258.28 47.5813 256.36 49.6507 253.672 51.272C251.027 52.8507 247.933 53.64 244.392 53.64ZM254.568 33.736C254.44 32.328 254.077 31.0267 253.48 29.832C252.925 28.6373 252.2 27.6347 251.304 26.824C250.408 25.9707 249.363 25.3093 248.168 24.84C246.973 24.3707 245.715 24.136 244.392 24.136C243.069 24.136 241.811 24.3707 240.616 24.84C239.464 25.3093 238.44 25.9707 237.544 26.824C236.648 27.6347 235.923 28.6373 235.368 29.832C234.813 31.0267 234.472 32.328 234.344 33.736H254.568ZM266.967 53V44.808H272.791V53H266.967ZM280.911 53V19.528H287.952V53H280.911ZM280.911 14.024V6.28H287.952V14.024H280.911ZM315.036 51.272C314.14 51.6987 312.902 52.1893 311.324 52.744C309.745 53.256 308.06 53.512 306.268 53.512C305.158 53.512 304.113 53.3627 303.132 53.064C302.15 52.7653 301.276 52.3173 300.508 51.72C299.782 51.1227 299.206 50.3547 298.78 49.416C298.353 48.4347 298.14 47.2613 298.14 45.896V24.968H293.724V19.528H298.14V8.52H305.18V19.528H312.476V24.968H305.18V43.656C305.265 44.8507 305.628 45.7253 306.268 46.28C306.95 46.792 307.782 47.048 308.764 47.048C309.745 47.048 310.684 46.8773 311.58 46.536C312.476 46.1947 313.137 45.9173 313.564 45.704L315.036 51.272Z" fill="#292420"/>
<rect y="35.6327" width="50.3922" height="50.3922" transform="rotate(-45 0 35.6327)" fill="#292420"/>
<path d="M49.1327 35.6326C49.1327 43.2861 43.0693 49.4905 35.5898 49.4905C28.1102 49.4905 22.0469 43.2861 22.0469 35.6326C22.0469 27.9792 28.1102 21.7748 35.5898 21.7748C43.0693 21.7748 49.1327 27.9792 49.1327 35.6326Z" fill="white"/>
<rect x="65.9131" y="56.8187" width="9.62034" height="72.1525" transform="rotate(133 65.9131 56.8187)" fill="white"/>
</svg>
