<svg width="92" height="93" viewBox="0 0 92 93" fill="none" xmlns="http://www.w3.org/2000/svg">
<path fill-rule="evenodd" clip-rule="evenodd" d="M48.072 92.9484C39.5163 93.632 32.4169 87.3716 24.9014 83.2086C16.1219 78.3454 3.6309 76.2683 0.619301 66.6632C-2.39447 57.0511 6.32042 47.9783 11.0724 39.1028C14.9338 31.8908 19.9508 26.0024 25.5674 20.0669C32.651 12.5811 37.7916 0.205174 48.072 0.00241089C58.3223 -0.199761 63.5702 12.3196 71.228 19.1663C77.9102 25.1407 86.8268 29.0935 90.004 37.4931C93.2503 46.0752 92.4338 56.1169 88.3029 64.3064C84.4609 71.9233 75.6462 74.7705 68.7105 79.7083C61.8837 84.5685 56.4135 92.2819 48.072 92.9484Z" fill="#D1D1D1"/>
<path d="M37.848 57.36C37.848 56.256 37.92 55.2 38.064 54.192C38.208 53.184 38.472 52.224 38.856 51.312C39.288 50.352 39.888 49.464 40.656 48.648C41.424 47.832 42.432 47.088 43.68 46.416C44.304 46.08 45.12 45.648 46.128 45.12C47.184 44.544 48.192 43.896 49.152 43.176C50.16 42.456 51.024 41.64 51.744 40.728C52.464 39.768 52.824 38.712 52.824 37.56C52.824 35.976 52.248 34.752 51.096 33.888C49.944 32.976 48.624 32.52 47.136 32.52C46.176 32.52 45.312 32.712 44.544 33.096C43.824 33.432 43.152 33.864 42.528 34.392C41.952 34.872 41.448 35.424 41.016 36.048C40.584 36.672 40.2 37.224 39.864 37.704L32.448 32.52C33.696 29.592 35.664 27.312 38.352 25.68C41.088 24.048 44.16 23.232 47.568 23.232C49.392 23.232 51.216 23.496 53.04 24.024C54.864 24.552 56.496 25.392 57.936 26.544C59.376 27.696 60.552 29.184 61.464 31.008C62.376 32.832 62.832 35.04 62.832 37.632C62.832 40.368 62.256 42.672 61.104 44.544C60 46.368 58.344 47.976 56.136 49.368C55.128 50.04 54.096 50.64 53.04 51.168C52.032 51.696 51.096 52.248 50.232 52.824C49.368 53.4 48.672 54.048 48.144 54.768C47.616 55.488 47.352 56.352 47.352 57.36H37.848ZM38.064 75V64.2H47.496V75H38.064Z" fill="#333333"/>
</svg>
