<svg width="92" height="93" viewBox="0 0 92 93" fill="none" xmlns="http://www.w3.org/2000/svg">
<path fill-rule="evenodd" clip-rule="evenodd" d="M43.928 0.051605C52.4837 -0.631984 59.5831 5.62838 67.0986 9.7914C75.8781 14.6546 88.3691 16.7317 91.3807 26.3368C94.3945 35.9489 85.6796 45.0217 80.9276 53.8972C77.0662 61.1092 72.0492 66.9976 66.4326 72.9331C59.349 80.4189 54.2084 92.7948 43.928 92.9976C33.6777 93.1998 28.4298 80.6804 20.772 73.8337C14.0898 67.8593 5.17324 63.9065 1.99595 55.5069C-1.25034 46.9248 -0.433753 36.8831 3.6971 28.6936C7.53911 21.0767 16.3538 18.2295 23.2895 13.2917C30.1163 8.43146 35.5865 0.718083 43.928 0.051605Z" fill="#63C6BA"/>
<rect x="5" y="80" width="78" height="2" fill="#333333"/>
<path d="M31 36.5V80H49.5V36.5H31Z" fill="#333333"/>
<rect x="29" y="73" width="8" height="18" transform="rotate(90 29 73)" fill="#333333"/>
<path d="M15.5 77L33.5 55" stroke="#333333" stroke-width="5"/>
<rect x="53" y="55" width="9" height="25" fill="#333333"/>
<rect x="66" y="55" width="9" height="25" fill="#333333"/>
<rect x="60" y="55" width="9" height="20" fill="#333333"/>
<path d="M53 19.5V55H75L53 19.5Z" fill="#333333"/>
</svg>
