<svg width="116" height="116" viewBox="0 0 116 116" fill="none" xmlns="http://www.w3.org/2000/svg">
<path fill-rule="evenodd" clip-rule="evenodd" d="M92.413 39.3356C99.0214 47.182 109.313 56.0066 106.47 65.8636C103.514 76.1157 88.107 75.4879 79.9893 82.4129C73.5661 87.8925 72.7412 99.8219 64.5021 101.666C56.2694 103.508 49.8286 94.6723 42.3101 90.8459C35.344 87.3006 26.8779 86.2957 22.1184 80.0956C17.0495 73.4923 15.8887 64.8479 15.9629 56.5236C16.0435 47.482 16.6997 37.7846 22.5571 30.896C28.476 23.9349 37.9296 21.2016 46.9916 20.0315C55.4969 18.9334 63.786 21.1994 71.6784 24.5537C79.6863 27.957 86.8079 32.6805 92.413 39.3356Z" fill="#EE7474"/>
<path d="M83.7913 63.3096V101.16H90.0439V112H26.0439V101.16H32.1545V63.3096H29.462V60.457H45.4077V101.16H46.4474V60.457H69.1543V101.16H70.194V60.457H86.4838V63.3096H83.7913Z" fill="#333333"/>
<path d="M76.0503 20.8268H39.9479V12.7341H76.0503V20.8268Z" fill="#333333"/>
<path d="M39.9479 11V12.5765C33.4409 12.5765 31.9526 18.004 31.8927 18.2293L30.3744 17.839C30.3894 17.7713 32.1994 11 39.9479 11Z" fill="#333333"/>
<path d="M85.6162 17.839L84.0979 18.2293C84.0381 18.004 82.5497 12.5765 76.0428 12.5765V11C83.7913 11 85.6012 17.7713 85.6162 17.839Z" fill="#333333"/>
<path d="M45.4302 59.4356H32.1844V24.6929H29.4919V21.8402H86.5063V24.6929H83.8137V59.4356H70.2164V24.7079H69.1768V59.4356H46.4699V24.7079H45.4302V59.4356Z" fill="#333333"/>
</svg>
