<svg width="84" height="84" viewBox="0 0 84 84" fill="none" xmlns="http://www.w3.org/2000/svg">
<path fill-rule="evenodd" clip-rule="evenodd" d="M39.589 0.0134562C51.114 -0.347136 61.2717 6.59015 69.3935 14.7315C77.4783 22.8357 83.1174 32.9833 83.8462 44.3772C84.6255 56.56 82.6343 69.9613 73.444 78.0518C64.5514 85.8802 51.464 83.3878 39.589 83.3382C27.795 83.289 13.431 86.8938 6.01693 77.7704C-1.30806 68.7567 6.87457 55.92 7.92748 44.3772C8.81132 34.6879 5.94035 24.4731 11.6023 16.5397C18.1307 7.39203 28.3163 0.366154 39.589 0.0134562Z" fill="#FFFA77"/>
<rect y="75" width="83" height="2" fill="#333333"/>
<line x1="17.5" y1="75" x2="17.5" y2="60" stroke="#333333" stroke-width="5"/>
<path fill-rule="evenodd" clip-rule="evenodd" d="M17.9592 47.0009C20.0247 47.0483 20.9422 49.1607 22.4787 50.2925C23.8003 51.266 25.5814 51.8392 26.3237 53.1621C27.1152 54.5724 27.203 56.2171 26.6341 57.6977C26.062 59.1868 24.831 60.4911 23.1985 61.2963C21.6456 62.0622 19.7715 61.9501 17.9592 61.9763C16.1096 62.0031 14.2464 62.1142 12.5835 61.4501C10.6914 60.6945 8.48863 59.7119 8.06092 58.0234C7.63396 56.3378 9.55651 54.9336 10.5483 53.4159C11.3365 52.2099 12.104 51.0743 13.2518 50.0807C14.6668 48.8559 15.9015 46.9536 17.9592 47.0009Z" fill="#333333"/>
<line x1="30" y1="75" x2="30" y2="49" stroke="#333333" stroke-width="6"/>
<path fill-rule="evenodd" clip-rule="evenodd" d="M31.6893 41.5667C34.0613 42.3596 34.3735 45.1094 35.7494 46.9564C36.9328 48.545 38.7895 49.839 39.1791 51.6211C39.5945 53.521 39.1131 55.438 37.9304 56.932C36.7409 58.4346 34.8548 59.4898 32.6815 59.8291C30.6141 60.1519 28.4864 59.3533 26.3811 58.7354C24.2325 58.1048 22.0383 57.5659 20.3506 56.21C18.4301 54.6671 16.2309 52.7529 16.3348 50.6642C16.4384 48.5792 19.1597 47.6567 20.8446 46.2714C22.1837 45.1706 23.4738 44.1431 25.1535 43.4144C27.224 42.5161 29.3263 40.7768 31.6893 41.5667Z" fill="#333333"/>
<line x1="48.5" y1="76" x2="48.5" y2="49" stroke="#333333" stroke-width="3"/>
<line x1="59.5" y1="75" x2="59.5" y2="61" stroke="#333333"/>
<line x1="64.5" y1="77" x2="64.5" y2="70" stroke="#333333"/>
<line x1="54.5" y1="76" x2="54.5" y2="58" stroke="#333333"/>
<path d="M49 56C53.4296 57.0513 62.1867 60.1001 61.7778 63.8849C61.2667 68.6158 70.4667 76.5007 72 75.975" stroke="#333333" stroke-width="2"/>
<path fill-rule="evenodd" clip-rule="evenodd" d="M26.586 26.1669C27.8743 23.8313 32.8427 22.3277 36.3807 20.4292C39.5197 18.7448 41.967 16.9001 46.1044 15.6932C51.2 14.2069 56.8221 12.304 62.6314 12.7722C68.4798 13.2436 71.2212 15.9788 74.7455 18.0018C78.2017 19.9858 83.9752 21.8546 82.8774 24.3941C81.7614 26.9758 73.3071 27.5871 69.6683 29.7471C66.2596 31.7705 67.7794 35.2113 62.6898 36.3776C57.6767 37.5263 52.4589 35.3085 47.0495 34.93C40.8969 34.4994 33.2368 35.8743 28.8883 34.0121C24.5475 32.1533 25.1057 28.8506 26.586 26.1669Z" fill="#333333"/>
<circle cx="46" cy="15" r="7" fill="#333333"/>
</svg>
