<svg width="90" height="88" viewBox="0 0 90 88" fill="none" xmlns="http://www.w3.org/2000/svg">
<path fill-rule="evenodd" clip-rule="evenodd" d="M46.7964 0.197037C56.1476 1.43472 61.2668 11.2651 68.6249 17.2054C75.5025 22.7579 85.9322 25.3211 88.4518 33.8262C90.9662 42.3139 84.907 50.7245 80.8891 58.6041C77.487 65.2761 72.8741 70.8525 67.134 75.6329C61.0099 80.733 54.7423 86.8194 46.7964 86.9966C38.7944 87.175 32.8704 80.3191 25.7936 76.5546C17.1367 71.9495 4.20853 71.7367 0.764383 62.5095C-2.65715 53.3429 7.03128 44.7279 10.499 35.5789C13.727 27.0625 13.8527 17.1577 20.3575 10.817C27.3453 4.00546 37.1528 -1.07934 46.7964 0.197037Z" fill="#7EEEB1" fill-opacity="0.2"/>
<path d="M70.7913 39.3096V77.1603H77.0439V88H13.0439V77.1603H19.1545V39.3096H16.462V36.457H32.4077V77.1603H33.4474V8.04297L56.1543 26V77.1603H57.194V36.457H73.4838V39.3096H70.7913Z" fill="#333333" fill-opacity="0.2"/>
</svg>
