<svg width="70" height="70" viewBox="0 0 70 70" fill="none" xmlns="http://www.w3.org/2000/svg">
<rect width="38.9356" height="38.9356" transform="matrix(0.70561 -0.7086 0.70561 0.7086 8.2832 33.4651)" fill="black"/>
<path fill-rule="evenodd" clip-rule="evenodd" d="M67.5332 36.4196C69.0097 44.8307 72.7211 55.4845 66.5832 61.3966C60.1992 67.5457 49.4107 60.6594 40.7089 62.2569C33.8235 63.5209 28.2709 71.7684 21.5951 69.6556C14.9244 67.5445 13.9797 58.4906 10.1788 52.5948C6.65707 47.1323 1.00317 42.8728 0.168103 36.4196C-0.721265 29.5469 2.04108 22.8361 5.55603 16.8717C9.3739 10.3933 13.8773 3.68305 20.9428 1.16779C28.0826 -1.37391 35.9994 0.60551 42.9852 3.54731C49.5417 6.30835 54.5443 11.4021 58.8098 17.114C63.1376 22.9095 66.2809 29.2857 67.5332 36.4196Z" fill="black" fill-opacity="0.1"/>
<path d="M46.1653 33.4654C46.1653 39.3913 41.4904 44.1953 35.7235 44.1953C29.9567 44.1953 25.2817 39.3913 25.2817 33.4654C25.2817 27.5394 29.9567 22.7355 35.7235 22.7355C41.4904 22.7355 46.1653 27.5394 46.1653 33.4654Z" fill="#FCFBFB"/>
<rect width="7.43426" height="73.8943" transform="matrix(-0.680455 0.73279 -0.729914 -0.683539 64.5093 54.932)" fill="#FCFBFB"/>
</svg>
