<svg width="92" height="92" viewBox="0 0 92 92" fill="none" xmlns="http://www.w3.org/2000/svg">
<path fill-rule="evenodd" clip-rule="evenodd" d="M88.706 48.055C90.6314 58.9771 95.4713 72.8115 87.4672 80.4885C79.1423 88.4733 65.0736 79.5312 53.7262 81.6055C44.7474 83.2469 37.5067 93.9566 28.8011 91.2131C20.1023 88.4718 18.8704 76.715 13.9138 69.0591C9.32142 61.9657 1.94853 56.4347 0.859571 48.055C-0.300204 39.1305 3.30199 30.4164 7.88562 22.6714C12.8642 14.259 18.7368 5.5455 27.9506 2.27935C37.2611 -1.02112 47.5849 1.54921 56.6946 5.36924C65.2445 8.95454 71.7681 15.569 77.3304 22.9861C82.9741 30.5117 87.073 38.7913 88.706 48.055Z" fill="#72D66A" fill-opacity="0.1"/>
</svg>
