<svg width="941" height="314" viewBox="0 0 941 314" fill="none" xmlns="http://www.w3.org/2000/svg">
<g filter="url(#filter0_i)">
<path d="M73.2333 252.429C10.2008 259.113 29.6601 388.016 47.2689 451.631L1149.52 287.457L1124.45 53.8115L1046.59 33.4187C1004.82 58.1824 1011.27 80.5843 974.853 46.9728C929.332 4.95845 848.551 79.8163 775.455 84.6471C702.358 89.4778 636.189 116.675 616.987 149.692C597.784 182.709 431.01 202.791 352.368 199.689C273.725 196.588 289.248 245.086 215.557 259.009C141.866 272.933 152.024 244.073 73.2333 252.429Z" fill="#E36997"/>
</g>
<path d="M940.785 311.658V272.054H945.134V269.069H871.78V272.054H876.13V311.658H841.751V272.054H844.577V269.069H827.477V311.658H826.385V269.069H802.549V311.658H801.458V269.069H784.72V272.054H787.546V311.658H774.906V272.054H777.732V269.069H734.613V311.658H733.523V269.069H716.619V311.658H715.527V269.069H672.919V272.054H675.746V311.658H662.619V272.054H665.445V269.069H648.345V311.658H647.254V269.069H623.418V311.658H622.327V269.069H605.588V272.054H608.414V311.658H602V323H956V311.658H940.785ZM898.773 311.658H897.681V272.054H898.773V311.658ZM919.241 311.658H918.15V272.054H919.241V311.658ZM876.138 216.574H897.689V173.569H898.78V216.574H918.158V173.569H919.249V216.574H940.8V173.341L943.516 167.74V161.59H939.717V156.618H940.8V153.382H931.049V156.618H932.102V161.59H925.836V155H919.249V151.669H915.182V145.236H916.234V142H900.704V145.236H901.757V151.669H897.689V155H891.102V161.59H884.915V156.618H885.999V153.382H876.248V156.618H877.3V161.59H873.414V167.74L876.13 173.341V216.574H876.138ZM936.804 156.618H937.903V161.59H936.804V156.618ZM933.899 156.618H934.998V161.59H933.899V156.618ZM912.269 145.228H913.368V151.662H912.269V145.228ZM909.365 145.228H910.464V151.662H909.365V145.228ZM906.46 145.228H907.559V151.662H906.46V145.228ZM903.555 145.228H904.654V151.662H903.555V145.228ZM896.748 169.712H900.202V153.704H903.327V169.712H904.669V153.704H907.794V169.712H909.137V153.704H912.261V169.712H913.603V153.704H916.729V169.712H920.184V170.772H896.755V169.712H896.748ZM882.011 156.618H883.11V161.59H882.011V156.618ZM879.106 156.618H880.205V161.59H879.106V156.618ZM876.138 268H897.689V220.62H898.78V268H918.158V220.62H919.249V268H940.8V220.62H945.15V217.635H871.797V220.62H876.146V268H876.138ZM787.562 268H801.474V231.664H802.565V268H826.401V231.664H827.492V268H841.766V231.648H844.592V228.663H784.743V231.648H787.57V268H787.562ZM842.064 224.885L843.658 224.476C843.642 224.406 841.742 217.32 833.609 217.32V218.97C840.439 218.97 842.002 224.649 842.064 224.885ZM795.711 218.97V217.32C787.577 217.32 785.677 224.406 785.661 224.476L787.255 224.885C787.326 224.649 788.889 218.97 795.711 218.97ZM795.711 227.603H833.609V219.135H795.711V227.603ZM616.595 227.603H654.493V219.135H616.595V227.603ZM616.595 218.97V217.32C608.461 217.32 606.562 224.406 606.546 224.476L608.14 224.885C608.202 224.649 609.765 218.97 616.595 218.97ZM662.941 224.885L664.534 224.476C664.519 224.406 662.619 217.32 654.485 217.32V218.97C661.315 218.97 662.878 224.649 662.941 224.885ZM608.438 268H622.35V231.664H623.442V268H647.278V231.664H648.369V268H662.642V231.648H665.469V228.663H605.619V231.648H608.446V268H608.438ZM768.75 229.88H751.298V223.078H738.783V218.342H711.571V223.078H699.378V229.88H681.925V234.947H768.75V229.88ZM675.769 268H715.551V237.5H716.642V268H733.546V237.5H734.637V268H774.929V238.992H777.755V236.007H672.943V238.992H675.769V268ZM759.753 228.977L761.346 228.569C761.331 228.498 759.431 221.413 751.298 221.413V223.062C758.128 223.062 759.69 228.741 759.753 228.977ZM699.386 223.062V221.413C691.252 221.413 689.352 228.498 689.336 228.569L690.93 228.977C691 228.741 692.563 223.062 699.386 223.062Z" fill="white"/>
<path d="M749.358 219.493H745.683V245.351H749.358V219.493ZM767.077 219.493H763.402V245.351H767.077V219.493ZM880.295 341.316L878.796 328.806H881.705L874.376 145.253L841.591 147.473L838.142 296.841L836.936 296.849L837.214 296.841L840.29 149.976L824.596 296.892L779.045 297.074V219.493H773.047V245.351H767.077V261.755H763.402V245.351H759.727V261.755H754.181V245.351H759.727V219.493H752.434V245.351H749.351V261.646H753.998V278.051H749.351V261.755H745.676V245.351H739.385V261.646H743.06V278.051H739.385V261.755H732.984V278.051H723.441V261.646H732.999V245.351H739.399V219.493H717.494V341.316H713V342H892V341.316H880.295ZM779.045 341.316V328.806H782.428L783.926 341.316H779.045ZM787.85 341.316H787.09L785.592 328.806H790.203L787.85 341.316ZM791.021 341.316L792.431 333.805L794.229 341.316H791.021ZM797.4 341.316L794.404 328.806H803.15L799.278 341.316H797.4ZM802.449 341.316L806.321 328.806H809.091L811.443 341.316H802.449ZM813.664 336.265L812.262 328.798H815.491L813.664 336.265ZM815.594 341.316L818.663 328.806H822.243L823.74 341.316H815.594ZM828.139 341.316H826.911L825.414 328.806H831.142L828.139 341.316ZM831.31 341.316L834.321 328.806H837.521L833.722 341.316H831.31ZM836.885 341.316L840.685 328.806H847.466L848.963 341.316H836.885ZM852.135 341.316L850.637 328.806H858.725L861.721 341.316H852.135ZM868.217 341.316H864.884L861.89 328.806H871.212L868.217 341.316ZM871.388 341.316L874.384 328.806H875.625L877.124 341.316H871.388ZM873.74 137L841.547 142.924V146.585L874.179 144.038L873.74 137Z" fill="white" fill-opacity="0.3"/>
<path d="M557.776 312.306V254.134H557.81V242H389.961V312.306H380V314H566V312.306H557.776ZM397.643 254.134H401.707V259.719H397.643V254.134ZM397.451 259.719H393.387V254.134H397.451V259.719ZM405.133 254.134H409.197V259.719H405.133V254.134ZM409.382 254.134H413.446V259.719H409.382V254.134ZM416.872 254.134H420.936V259.719H416.872V254.134ZM421.121 254.134H425.185V259.719H421.121V254.134ZM428.611 254.134H432.675V259.719H428.611V254.134ZM432.867 254.134H436.931V259.719H432.867V254.134ZM440.357 254.134H444.421V259.719H440.357V254.134ZM444.606 254.134H448.67V259.719H444.606V254.134ZM452.096 254.134H456.16V259.719H452.096V254.134ZM456.352 254.134H460.416V259.719H456.352V254.134ZM463.842 254.134H467.906V259.719H463.842V254.134ZM468.091 254.134H472.156V259.719H468.091V254.134ZM475.581 254.134H479.645V259.719H475.581V254.134ZM479.831 254.134H483.895V259.719H479.831V254.134ZM487.32 254.134H491.384V259.719H487.32V254.134ZM491.577 254.134H495.641V259.719H491.577V254.134ZM499.067 254.134H503.13V259.719H499.067V254.134ZM503.316 254.134H507.38V259.719H503.316V254.134ZM510.806 254.134H514.869V259.719H510.806V254.134ZM515.062 254.134H519.126V259.719H515.062V254.134ZM522.551 254.134H526.616V259.719H522.551V254.134ZM526.801 254.134H530.865V259.719H526.801V254.134ZM534.29 254.134H538.355V259.719H534.29V254.134ZM538.54 254.134H542.604V259.719H538.54V254.134ZM546.03 254.134H550.094V259.719H546.03V254.134ZM550.286 254.134H554.35V259.719H550.286V254.134ZM393.387 260.019H397.451V277.041H393.387V260.019ZM397.643 260.019H401.707V277.041H397.643V260.019ZM405.133 260.019H409.197V277.041H405.133V260.019ZM409.382 260.019H413.446V277.041H409.382V260.019ZM416.872 260.019H420.936V277.041H416.872V260.019ZM421.121 260.019H425.185V277.041H421.121V260.019ZM428.611 260.019H432.675V277.041H428.611V260.019ZM432.867 260.019H436.931V277.041H432.867V260.019ZM440.357 260.019H444.421V277.041H440.357V260.019ZM444.606 260.019H448.67V277.041H444.606V260.019ZM452.096 260.019H456.16V277.041H452.096V260.019ZM456.352 260.019H460.416V277.041H456.352V260.019ZM463.842 260.019H467.906V277.041H463.842V260.019ZM468.091 260.019H472.156V277.041H468.091V260.019ZM475.581 260.019H479.645V277.041H475.581V260.019ZM479.831 260.019H483.895V277.041H479.831V260.019ZM487.32 260.019H491.384V277.041H487.32V260.019ZM491.577 260.019H495.641V277.041H491.577V260.019ZM499.067 260.019H503.13V277.041H499.067V260.019ZM503.316 260.019H507.38V277.041H503.316V260.019ZM510.806 260.019H514.869V277.041H510.806V260.019ZM515.062 260.019H519.126V277.041H515.062V260.019ZM522.551 260.019H526.616V277.041H522.551V260.019ZM526.801 260.019H530.865V277.041H526.801V260.019ZM534.29 260.019H538.355V277.041H534.29V260.019ZM538.54 260.019H542.604V277.041H538.54V260.019ZM546.03 260.019H550.094V277.041H546.03V260.019ZM550.286 260.019H554.35V277.041H550.286V260.019ZM393.387 277.341H397.451V294.363H393.387V277.341ZM397.643 277.341H401.707V294.363H397.643V277.341ZM405.133 277.341H409.197V294.363H405.133V277.341ZM409.382 277.341H413.446V294.363H409.382V277.341ZM416.872 277.341H420.936V294.363H416.872V277.341ZM421.121 277.341H425.185V294.363H421.121V277.341ZM428.611 277.341H432.675V294.363H428.611V277.341ZM432.867 277.341H436.931V294.363H432.867V277.341ZM440.357 277.341H444.421V294.363H440.357V277.341ZM444.606 277.341H448.67V294.363H444.606V277.341ZM452.096 277.341H456.16V294.363H452.096V277.341ZM456.352 277.341H460.416V294.363H456.352V277.341ZM463.842 277.341H467.906V294.363H463.842V277.341ZM468.091 277.341H472.156V294.363H468.091V277.341ZM475.581 277.341H479.645V294.363H475.581V277.341ZM479.831 277.341H483.895V294.363H479.831V277.341ZM487.32 277.341H491.384V294.363H487.32V277.341ZM491.577 277.341H495.641V294.363H491.577V277.341ZM499.067 277.341H503.13V294.363H499.067V277.341ZM503.316 277.341H507.38V294.363H503.316V277.341ZM510.806 277.341H514.869V294.363H510.806V277.341ZM515.062 277.341H519.126V294.363H515.062V277.341ZM522.551 277.341H526.616V294.363H522.551V277.341ZM526.801 277.341H530.865V294.363H526.801V277.341ZM534.29 277.341H538.355V294.363H534.29V277.341ZM538.54 277.341H542.604V294.363H538.54V277.341ZM546.03 277.341H550.094V294.363H546.03V277.341ZM550.286 277.341H554.35V294.363H550.286V277.341ZM393.387 294.663H397.451V312.306H393.387V294.663ZM397.643 294.663H401.707V312.306H397.643V294.663ZM405.133 294.663H409.197V312.306H405.133V294.663ZM409.382 294.663H413.446V312.306H409.382V294.663ZM416.872 294.663H420.936V312.306H416.872V294.663ZM421.121 294.663H425.185V312.306H421.121V294.663ZM428.611 294.663H432.675V312.306H428.611V294.663ZM432.867 294.663H436.931V312.306H432.867V294.663ZM440.357 294.663H444.421V312.306H440.357V294.663ZM444.606 294.663H448.67V312.306H444.606V294.663ZM452.096 294.663H456.16V312.306H452.096V294.663ZM456.352 294.663H460.416V312.306H456.352V294.663ZM463.842 294.663H467.906V312.306H463.842V294.663ZM468.091 294.663H472.156V312.306H468.091V294.663ZM475.581 294.663H479.645V312.306H475.581V294.663ZM479.831 294.663H483.895V312.306H479.831V294.663ZM487.32 294.663H491.384V312.306H487.32V294.663ZM491.577 294.663H495.641V312.306H491.577V294.663ZM499.067 294.663H503.13V312.306H499.067V294.663ZM503.316 294.663H507.38V312.306H503.316V294.663ZM510.806 294.663H514.869V312.306H510.806V294.663ZM515.062 294.663H519.126V312.306H515.062V294.663ZM522.551 294.663H526.616V312.306H522.551V294.663ZM526.801 294.663H530.865V312.306H526.801V294.663ZM534.29 294.663H538.355V312.306H534.29V294.663ZM538.54 294.663H542.604V312.306H538.54V294.663ZM546.03 294.663H550.094V312.306H546.03V294.663ZM550.286 294.663H554.35V312.306H550.286V294.663Z" fill="white"/>
<defs>
<filter id="filter0_i" x="0" y="-1.52588e-05" width="1167.94" height="498.509" filterUnits="userSpaceOnUse" color-interpolation-filters="sRGB">
<feFlood flood-opacity="0" result="BackgroundImageFix"/>
<feBlend mode="normal" in="SourceGraphic" in2="BackgroundImageFix" result="shape"/>
<feColorMatrix in="SourceAlpha" type="matrix" values="0 0 0 0 0 0 0 0 0 0 0 0 0 0 0 0 0 0 127 0" result="hardAlpha"/>
<feOffset dy="4"/>
<feGaussianBlur stdDeviation="2"/>
<feComposite in2="hardAlpha" operator="arithmetic" k2="-1" k3="1"/>
<feColorMatrix type="matrix" values="0 0 0 0 0 0 0 0 0 0 0 0 0 0 0 0 0 0 0.25 0"/>
<feBlend mode="normal" in2="shape" result="effect1_innerShadow"/>
</filter>
</defs>
</svg>
